<!DOCTYPE svg PUBLIC "-//W3C//DTD SVG 1.1//EN" "http://www.w3.org/Graphics/SVG/1.1/DTD/svg11.dtd">
<!-- Uploaded to: SVG Repo, www.svgrepo.com, Transformed by: SVG Repo Mixer Tools -->
<svg height="80px" width="80px" version="1.1" xmlns="http://www.w3.org/2000/svg" xmlns:xlink="http://www.w3.org/1999/xlink" viewBox="0 0 64 64" xml:space="preserve" fill="#000000">
<g id="SVGRepo_bgCarrier" stroke-width="0"/>
<g id="SVGRepo_tracerCarrier" stroke-linecap="round" stroke-linejoin="round"/>
<g id="SVGRepo_iconCarrier"> <style type="text/css"> .st0{fill:#fd7d02;} .st1{opacity:0.2;} .st2{fill:#231F20;} .st3{fill:#ffffff;} .st4{fill:#000000;} </style> <g id="Layer_1"> <g> <circle class="st0" cx="32" cy="32" r="32"/> </g> <g class="st1"> <path class="st2" d="M32,56c0,0-18-6.8-18-21.5V20.9c0,0,5.8-6.9,18-6.9V56z"/> </g> <g class="st1"> <path class="st2" d="M32,56c0,0,18-6.8,18-21.5V20.9c0,0-5.8-6.9-18-6.9V56z"/> </g> <g> <path class="st3" d="M32,54c0,0-18-6.8-18-21.5V18.9c0,0,5.8-6.9,18-6.9V54z"/> </g> <g> <path class="st4" d="M32,54c0,0,18-6.8,18-21.5V18.9c0,0-5.8-6.9-18-6.9V54z"/> </g> </g> <g id="Layer_2"> </g> </g>
</svg>